<svg width="250" height="65" viewBox="0 0 250 65" fill="none" xmlns="http://www.w3.org/2000/svg">
<path d="M0 65V38.3067C0 17.185 19.1709 0 42.7334 0H250V26.6933C250 47.815 230.829 65 207.267 65H0Z" fill="#3F54A0"/>
<path d="M207.267 60.6484H4.85444V38.3067C4.85444 19.5544 21.8141 4.35156 42.7334 4.35156H245.142V26.6933C245.142 45.4456 228.182 60.6484 207.263 60.6484H207.267Z" fill="#211D51"/>
<path d="M45.4932 32.6214C44.8487 32.1051 44.1013 31.6779 43.2511 31.3337C42.4009 30.9895 41.5301 30.6884 40.6422 30.4241C39.7543 30.1598 38.9452 29.8863 38.2184 29.6005C37.4882 29.3147 36.9431 28.9766 36.5797 28.5863C36.2163 28.1961 36.1271 27.7044 36.3123 27.1112C36.4631 26.6318 36.7202 26.2293 37.0905 25.9096C37.4573 25.59 37.8996 25.3442 38.4138 25.1721C38.9281 25 39.4663 24.9139 40.0251 24.9139C40.9713 24.9139 41.681 25.1721 42.1609 25.6853C42.6374 26.2016 42.826 26.9514 42.7231 27.9348L49.4666 26.4597C49.6037 25.1997 49.3843 24.1057 48.8049 23.1807C48.2255 22.2526 47.3273 21.5273 46.1137 20.9988C44.9001 20.4733 43.4088 20.209 41.6467 20.209C39.7063 20.209 37.9133 20.4886 36.2711 21.051C34.6256 21.6134 33.2303 22.4308 32.0749 23.5064C30.923 24.582 30.1105 25.8758 29.6374 27.3878C29.2809 28.5341 29.2226 29.496 29.466 30.2735C29.7094 31.051 30.1517 31.6994 30.7962 32.2127C31.4407 32.7289 32.1881 33.1561 33.0383 33.5003C33.8885 33.8445 34.749 34.1518 35.6232 34.4284C36.494 34.7019 37.2825 34.9785 37.9887 35.252C38.6949 35.5255 39.2263 35.8635 39.5897 36.2661C39.9497 36.6656 40.0354 37.1758 39.84 37.7935C39.624 38.4819 39.1543 39.0289 38.4241 39.4407C37.6939 39.8525 36.7819 40.0584 35.6849 40.0584C34.5879 40.0584 33.8439 39.7388 33.3023 39.0965C32.7606 38.4573 32.524 37.5753 32.596 36.4536L25.88 37.7228C25.7669 39.1426 26.0309 40.3841 26.672 41.4505C27.3096 42.5138 28.2901 43.3405 29.6169 43.9244C30.9402 44.5083 32.5617 44.8002 34.4781 44.8002C36.3946 44.8002 38.2355 44.4622 39.9291 43.7861C41.6192 43.11 43.0694 42.2188 44.2693 41.1063C45.4726 39.9969 46.2817 38.7646 46.7034 37.4155C47.0599 36.2723 47.1113 35.3165 46.8508 34.5482C46.5937 33.78 46.1411 33.1407 45.4966 32.6245L45.4932 32.6214Z" fill="white"/>
<path d="M62.4906 20.4456L45.2361 44.5544H52.0172L54.9484 40.295H65.0412L65.3086 44.5544H72.1274L69.9574 20.4456H62.4871H62.4906ZM58.051 35.7959L64.2013 26.8654L64.7635 35.7959H58.051Z" fill="white"/>
<path d="M97.2601 21.4782C96.0191 20.7898 94.2981 20.4487 92.104 20.4487H81.5312L74.0096 44.5575H80.4856L83.1974 35.8697H87.2976C89.5979 35.8697 91.5863 35.504 93.2731 34.7695C94.9563 34.0381 96.3276 33.0854 97.3801 31.9207C98.4326 30.7529 99.1663 29.5175 99.5708 28.2114C100.027 26.7456 100.068 25.4302 99.6908 24.2625C99.3137 23.0947 98.5046 22.1666 97.2636 21.4813L97.2601 21.4782ZM91.3704 30.4057C90.6127 30.9558 89.5671 31.2293 88.2403 31.2293H84.6407L86.5365 25.1506H90.1362C91.4629 25.1506 92.3371 25.4241 92.7519 25.9742C93.1668 26.5243 93.2285 27.268 92.9371 28.2053C92.6525 29.1211 92.128 29.8525 91.3704 30.4026V30.4057Z" fill="white"/>
<path d="M125.252 23.6755C124.33 22.5753 123.133 21.724 121.663 21.1156C120.192 20.5101 118.498 20.2059 116.582 20.2059C114.665 20.2059 112.821 20.5101 110.973 21.1156C109.122 21.724 107.387 22.5753 105.769 23.6755C104.148 24.7757 102.756 26.0695 101.59 27.5569C100.424 29.0443 99.5571 30.6945 98.9948 32.5015C98.436 34.287 98.2749 35.9312 98.5114 37.4309C98.7446 38.9306 99.3308 40.2305 100.263 41.3276C101.196 42.4278 102.399 43.279 103.87 43.8875C105.341 44.496 107.02 44.7972 108.909 44.7972C110.798 44.7972 112.708 44.4929 114.556 43.8875C116.404 43.2821 118.135 42.4278 119.739 41.3276C121.347 40.2274 122.736 38.9306 123.905 37.4309C125.074 35.9312 125.938 34.287 126.496 32.5015C127.062 30.6945 127.223 29.0443 126.987 27.5569C126.747 26.0695 126.167 24.7757 125.249 23.6755H125.252ZM117.902 36.1739C116.973 37.228 115.883 38.0455 114.628 38.6294C113.373 39.2133 112.019 39.5052 110.562 39.5052C109.105 39.5052 107.932 39.2133 107.041 38.6294C106.15 38.0455 105.577 37.228 105.317 36.1739C105.056 35.1199 105.145 33.8967 105.581 32.4985C106.03 31.0572 106.712 29.8156 107.624 28.7738C108.536 27.732 109.619 26.9238 110.87 26.3522C112.122 25.7806 113.476 25.4948 114.929 25.4948C116.383 25.4948 117.559 25.7806 118.454 26.3522C119.348 26.9238 119.931 27.732 120.209 28.7738C120.483 29.8156 120.398 31.0572 119.945 32.4985C119.51 33.8967 118.827 35.1199 117.898 36.1739H117.902Z" fill="white"/>
<path d="M146.113 36.0725C145.39 35.1106 144.426 34.4345 143.22 34.0473C145.153 33.657 146.809 32.898 148.184 31.764C149.558 30.63 150.477 29.3208 150.943 27.8304C151.399 26.3645 151.413 25.0768 150.981 23.9674C150.549 22.858 149.702 21.9914 148.437 21.3737C147.176 20.756 145.482 20.4456 143.364 20.4456H132.407L124.885 44.5544H131.361L134.094 35.7959C135.287 35.8205 136.301 35.9619 137.138 36.2262C137.974 36.4905 138.663 36.8623 139.205 37.3417C140.093 38.0977 140.611 39.0934 140.761 40.3288C140.912 41.5642 140.803 42.9717 140.439 44.5513H147.412C147.755 42.7197 147.803 41.0879 147.56 39.6589C147.316 38.2299 146.833 37.0313 146.113 36.0695V36.0725ZM142.65 30.2858C141.841 30.8697 140.837 31.1616 139.637 31.1616H135.537L137.412 25.1506H141.512C142.688 25.1506 143.511 25.421 143.981 25.9588C144.45 26.4966 144.55 27.2004 144.279 28.0701C144.001 28.9613 143.456 29.7019 142.65 30.2858Z" fill="white"/>
<path d="M155.784 25.083H158.736L154.104 39.917H151.156L149.709 44.5544H162.082L163.529 39.917H160.58L165.209 25.083H168.16L169.607 20.4456H157.231L155.784 25.083Z" fill="white"/>
<path d="M185.514 35.5224L179.182 20.4456H172.71L165.188 44.5544H171.661L176.333 29.5821L182.696 44.5544H189.169L196.69 20.4456H190.218L185.514 35.5224Z" fill="white"/>
<path d="M210.736 44.5544H217.555L215.385 20.4456H207.915L190.66 44.5544H197.441L200.372 40.295H210.465L210.733 44.5544H210.736ZM203.475 35.7959L209.625 26.8654L210.187 35.7959H203.475Z" fill="white"/>
<path d="M225.327 14.2133C230.894 13.9121 234.611 19.3239 231.755 23.6447C229.173 27.5476 222.9 27.7382 220.02 24.0012C216.941 20.0061 219.944 14.5021 225.327 14.2133ZM225.268 15.209C221.055 15.4855 218.57 19.7111 220.633 23.0178C222.68 26.2938 227.847 26.6472 230.404 23.6601C233.517 20.0246 230.335 14.8771 225.268 15.2059V15.209Z" fill="white"/>
<path d="M222.457 17.1635C223.647 17.2004 224.871 17.1143 226.057 17.1635C227.295 17.2157 228.337 17.5507 228.453 18.8107C228.563 19.9693 227.775 20.6669 226.551 20.8451C227.291 21.2108 227.709 21.8254 228.155 22.4401C228.402 22.7781 228.813 23.3036 228.998 23.6478L229.026 23.74H227.264C226.815 23.1377 226.393 22.5108 225.923 21.9207C225.676 21.6103 225.347 21.1401 224.912 21.0449L224.01 20.9865L223.938 21.0234V23.7369H222.461V17.1604L222.457 17.1635ZM223.938 19.9416C224.514 19.9201 225.114 19.9693 225.687 19.9416C226.427 19.9078 227.01 19.7541 226.921 18.9582C226.883 18.6263 226.516 18.2821 226.139 18.2821H223.935V19.9385L223.938 19.9416Z" fill="white"/>
<path d="M72.4052 54.3946V51.2846H74.5752V51.7302H72.9674V52.5937H74.397V53.0393H72.9674V54.3946H72.4052Z" fill="white"/>
<path d="M78.0652 54.3946V52.0774H78.6069V52.523H78.6309C78.6686 52.4032 78.744 52.2987 78.8606 52.2096C78.9771 52.1205 79.1383 52.0774 79.344 52.0774H79.488V52.5446H79.2754C79.0594 52.5446 78.8949 52.5753 78.7783 52.6398C78.6652 52.7013 78.6069 52.7935 78.6069 52.9164V54.3977H78.0652V54.3946Z" fill="white"/>
<path d="M83.9379 54.4499C83.7527 54.4499 83.5882 54.4222 83.4408 54.3669C83.2968 54.3116 83.1699 54.2286 83.0671 54.1242C82.9642 54.0197 82.8854 53.8906 82.8305 53.74C82.7757 53.5894 82.7482 53.4235 82.7482 53.236C82.7482 53.0486 82.7757 52.8857 82.8305 52.7351C82.8854 52.5845 82.9642 52.4585 83.0671 52.351C83.1699 52.2465 83.2933 52.1635 83.4408 52.1082C83.5847 52.0529 83.7527 52.0221 83.9379 52.0221C84.123 52.0221 84.2944 52.0529 84.4384 52.1112C84.5824 52.1696 84.7024 52.2526 84.7984 52.3571C84.8943 52.4616 84.9663 52.5876 85.0143 52.7259C85.0623 52.8642 85.0863 53.0178 85.0863 53.1776V53.362H83.3105V53.4358C83.3105 53.614 83.3688 53.7585 83.4853 53.8722C83.6019 53.9859 83.7733 54.0412 83.9893 54.0412C84.1504 54.0412 84.2841 54.0104 84.3904 53.949C84.5001 53.8844 84.5927 53.8015 84.6681 53.697L84.9869 53.9766C84.8909 54.1211 84.7504 54.2348 84.5687 54.3208C84.387 54.4038 84.1744 54.4468 83.931 54.4468L83.9379 54.4499ZM83.9379 52.4032C83.8453 52.4032 83.7596 52.4186 83.6807 52.4493C83.6019 52.48 83.5367 52.52 83.4819 52.5722C83.427 52.6245 83.3859 52.689 83.3551 52.7628C83.3242 52.8365 83.3105 52.9195 83.3105 53.0055V53.0363H84.5138V52.9932C84.5138 52.815 84.4624 52.6706 84.3595 52.563C84.2567 52.4524 84.1161 52.4001 83.9379 52.4001V52.4032Z" fill="white"/>
<path d="M89.4951 54.4499C89.2483 54.4499 89.0426 54.413 88.878 54.3331C88.7135 54.2563 88.5695 54.1487 88.446 54.0135L88.7923 53.7277C88.8883 53.8322 88.9946 53.9121 89.1146 53.9705C89.2311 54.0258 89.3683 54.0565 89.526 54.0565C89.6837 54.0565 89.8036 54.0289 89.8825 53.9736C89.9613 53.9182 89.9991 53.8414 89.9991 53.7431C89.9991 53.6693 89.9716 53.6048 89.9168 53.5525C89.8619 53.5003 89.7659 53.4665 89.6322 53.4511L89.3923 53.4235C89.1283 53.3927 88.9191 53.3251 88.7683 53.2176C88.6175 53.1069 88.542 52.9471 88.542 52.732C88.542 52.6214 88.566 52.52 88.6106 52.4308C88.6586 52.3448 88.7237 52.268 88.8094 52.2065C88.8951 52.145 88.9946 52.0989 89.1111 52.0682C89.2277 52.0344 89.358 52.019 89.502 52.019C89.7317 52.019 89.9236 52.0528 90.0711 52.1174C90.2185 52.1819 90.3522 52.2741 90.4653 52.3878L90.1328 52.6736C90.0676 52.6029 89.9785 52.5384 89.8722 52.4892C89.7625 52.437 89.6425 52.4124 89.502 52.4124C89.3511 52.4124 89.2414 52.437 89.1694 52.4923C89.0974 52.5445 89.0631 52.6152 89.0631 52.7013C89.0631 52.7873 89.094 52.858 89.1557 52.9041C89.2174 52.9471 89.3203 52.9809 89.4608 53.0024L89.7008 53.0301C89.9853 53.067 90.1945 53.1438 90.3247 53.2544C90.455 53.3651 90.5202 53.5157 90.5202 53.7031C90.5202 53.8138 90.4962 53.9182 90.4482 54.0074C90.4002 54.0965 90.3316 54.1764 90.2425 54.2409C90.1533 54.3055 90.0436 54.3577 89.9168 54.3915C89.7899 54.4284 89.6494 54.4438 89.4951 54.4438V54.4499Z" fill="white"/>
<path d="M94.1096 51.0971H94.6512V52.4616H94.6752C94.7301 52.3387 94.8158 52.2311 94.9323 52.1512C95.0489 52.0682 95.2032 52.0252 95.402 52.0252C95.666 52.0252 95.8717 52.102 96.0225 52.2588C96.1699 52.4155 96.2419 52.6367 96.2419 52.9256V54.3977H95.7003V52.984C95.7003 52.6245 95.5357 52.4431 95.2135 52.4431C95.1415 52.4431 95.0763 52.4524 95.0078 52.4677C94.9392 52.4831 94.8775 52.5077 94.8261 52.5415C94.7746 52.5753 94.7301 52.6152 94.6992 52.6644C94.6684 52.7136 94.6512 52.775 94.6512 52.8396V54.3946H94.1096V51.0971Z" fill="white"/>
<path d="M99.9788 54.3946V52.0774H100.52V52.4616H100.544C100.599 52.3387 100.685 52.2311 100.802 52.1512C100.918 52.0682 101.072 52.0252 101.271 52.0252C101.535 52.0252 101.741 52.102 101.892 52.2588C102.039 52.4155 102.111 52.6367 102.111 52.9256V54.3977H101.569V52.9902C101.569 52.6275 101.405 52.4462 101.083 52.4462C101.011 52.4462 100.946 52.4554 100.877 52.4708C100.808 52.4862 100.747 52.5107 100.695 52.5446C100.644 52.5784 100.599 52.6183 100.568 52.6675C100.538 52.7167 100.52 52.7781 100.52 52.8457V54.3977H99.9788V54.3946Z" fill="white"/>
<path d="M106.859 54.4499C106.674 54.4499 106.51 54.4222 106.362 54.3669C106.218 54.3116 106.091 54.2286 105.989 54.1242C105.886 54.0197 105.807 53.8906 105.752 53.74C105.697 53.5894 105.67 53.4235 105.67 53.236C105.67 53.0486 105.697 52.8857 105.752 52.7351C105.807 52.5845 105.886 52.4585 105.989 52.351C106.091 52.2465 106.215 52.1635 106.362 52.1082C106.506 52.0529 106.674 52.0221 106.859 52.0221C107.044 52.0221 107.216 52.0529 107.36 52.1112C107.504 52.1696 107.624 52.2526 107.72 52.3571C107.816 52.4616 107.888 52.5876 107.936 52.7259C107.984 52.8642 108.008 53.0178 108.008 53.1776V53.362H106.232V53.4358C106.232 53.614 106.29 53.7585 106.407 53.8722C106.523 53.9859 106.695 54.0412 106.911 54.0412C107.072 54.0412 107.206 54.0104 107.312 53.949C107.422 53.8844 107.514 53.8015 107.59 53.697L107.908 53.9766C107.812 54.1211 107.672 54.2348 107.49 54.3208C107.308 54.4038 107.096 54.4468 106.852 54.4468L106.859 54.4499ZM106.859 52.4032C106.767 52.4032 106.681 52.4186 106.602 52.4493C106.523 52.48 106.458 52.52 106.403 52.5722C106.348 52.6245 106.307 52.689 106.276 52.7628C106.246 52.8365 106.232 52.9195 106.232 53.0055V53.0363H107.435V52.9932C107.435 52.815 107.384 52.6706 107.281 52.563C107.178 52.4524 107.038 52.4001 106.859 52.4001V52.4032Z" fill="white"/>
<path d="M112.417 54.4499C112.17 54.4499 111.964 54.413 111.799 54.3331C111.635 54.2563 111.491 54.1487 111.367 54.0135L111.714 53.7277C111.81 53.8322 111.916 53.9121 112.036 53.9705C112.153 54.0258 112.29 54.0565 112.447 54.0565C112.605 54.0565 112.725 54.0289 112.804 53.9736C112.883 53.9182 112.92 53.8414 112.92 53.7431C112.92 53.6693 112.893 53.6048 112.838 53.5525C112.783 53.5003 112.687 53.4665 112.554 53.4511L112.314 53.4235C112.05 53.3927 111.841 53.3251 111.69 53.2176C111.539 53.1069 111.463 52.9471 111.463 52.732C111.463 52.6214 111.487 52.52 111.532 52.4308C111.58 52.3448 111.645 52.268 111.731 52.2065C111.817 52.145 111.916 52.0989 112.033 52.0682C112.149 52.0344 112.279 52.019 112.423 52.019C112.653 52.019 112.845 52.0528 112.992 52.1174C113.14 52.1819 113.274 52.2741 113.387 52.3878L113.054 52.6736C112.989 52.6029 112.9 52.5384 112.794 52.4892C112.684 52.437 112.564 52.4124 112.423 52.4124C112.273 52.4124 112.163 52.437 112.091 52.4923C112.019 52.5445 111.985 52.6152 111.985 52.7013C111.985 52.7873 112.015 52.858 112.077 52.9041C112.139 52.9471 112.242 52.9809 112.382 53.0024L112.622 53.0301C112.907 53.067 113.116 53.1438 113.246 53.2544C113.376 53.3651 113.442 53.5157 113.442 53.7031C113.442 53.8138 113.418 53.9182 113.37 54.0074C113.322 54.0965 113.253 54.1764 113.164 54.2409C113.075 54.3055 112.965 54.3577 112.838 54.3915C112.711 54.4284 112.571 54.4438 112.417 54.4438V54.4499Z" fill="white"/>
<path d="M117.819 54.4499C117.573 54.4499 117.367 54.413 117.202 54.3331C117.038 54.2563 116.894 54.1487 116.77 54.0135L117.117 53.7277C117.213 53.8322 117.319 53.9121 117.439 53.9705C117.556 54.0258 117.693 54.0565 117.85 54.0565C118.008 54.0565 118.128 54.0289 118.207 53.9736C118.286 53.9182 118.323 53.8414 118.323 53.7431C118.323 53.6693 118.296 53.6048 118.241 53.5525C118.186 53.5003 118.09 53.4665 117.957 53.4511L117.717 53.4235C117.453 53.3927 117.244 53.3251 117.093 53.2176C116.942 53.1069 116.866 52.9471 116.866 52.732C116.866 52.6214 116.89 52.52 116.935 52.4308C116.983 52.3448 117.048 52.268 117.134 52.2065C117.22 52.145 117.319 52.0989 117.436 52.0682C117.552 52.0344 117.682 52.019 117.826 52.019C118.056 52.019 118.248 52.0528 118.395 52.1174C118.543 52.1819 118.677 52.2741 118.79 52.3878L118.457 52.6736C118.392 52.6029 118.303 52.5384 118.197 52.4892C118.087 52.437 117.967 52.4124 117.826 52.4124C117.676 52.4124 117.566 52.437 117.494 52.4923C117.422 52.5445 117.388 52.6152 117.388 52.7013C117.388 52.7873 117.418 52.858 117.48 52.9041C117.542 52.9471 117.645 52.9809 117.785 53.0024L118.025 53.0301C118.31 53.067 118.519 53.1438 118.649 53.2544C118.779 53.3651 118.845 53.5157 118.845 53.7031C118.845 53.8138 118.821 53.9182 118.773 54.0074C118.725 54.0965 118.656 54.1764 118.567 54.2409C118.478 54.3055 118.368 54.3577 118.241 54.3915C118.114 54.4284 117.974 54.4438 117.819 54.4438V54.4499Z" fill="white"/>
<path d="M128.639 54.0811C128.598 54.118 128.543 54.158 128.481 54.2041C128.42 54.2471 128.348 54.287 128.269 54.3239C128.187 54.3608 128.094 54.3915 127.988 54.413C127.885 54.4376 127.765 54.4499 127.635 54.4499C127.456 54.4499 127.295 54.4284 127.158 54.3854C127.018 54.3393 126.901 54.2809 126.808 54.201C126.716 54.1242 126.644 54.032 126.596 53.9275C126.548 53.8199 126.524 53.7062 126.524 53.5864C126.524 53.4757 126.541 53.3743 126.582 53.2883C126.62 53.1991 126.671 53.1223 126.736 53.0516C126.802 52.9809 126.874 52.9226 126.959 52.8672C127.045 52.8119 127.134 52.7597 127.23 52.7105C127.12 52.606 127.028 52.4923 126.952 52.3725C126.877 52.2495 126.839 52.1205 126.839 51.9791C126.839 51.8746 126.863 51.7763 126.908 51.6841C126.952 51.595 127.018 51.5151 127.1 51.4474C127.182 51.3798 127.282 51.3276 127.402 51.2907C127.522 51.2538 127.648 51.2323 127.792 51.2323C127.926 51.2323 128.046 51.2477 128.159 51.2815C128.272 51.3122 128.368 51.3583 128.454 51.4198C128.536 51.4813 128.601 51.5519 128.646 51.638C128.691 51.724 128.715 51.8162 128.715 51.9207C128.715 52.0252 128.694 52.1143 128.656 52.1973C128.619 52.2803 128.564 52.354 128.492 52.4216C128.42 52.4862 128.341 52.5507 128.248 52.6091C128.159 52.6644 128.06 52.7228 127.957 52.775L128.636 53.4296C128.68 53.3251 128.718 53.2114 128.745 53.0916C128.773 52.9748 128.787 52.8549 128.793 52.7351H129.534V53.1407H129.195C129.147 53.3651 129.068 53.5648 128.965 53.7431L129.647 54.4007H128.972L128.646 54.0842L128.639 54.0811ZM127.7 54.035C127.837 54.035 127.96 54.0166 128.067 53.9736C128.173 53.9305 128.265 53.8752 128.344 53.7984L127.498 52.984C127.371 53.0455 127.271 53.1131 127.192 53.193C127.114 53.2698 127.076 53.3774 127.076 53.5095V53.5648C127.076 53.7093 127.131 53.823 127.24 53.906C127.35 53.9889 127.501 54.032 127.7 54.032V54.035ZM127.782 51.6195C127.662 51.6195 127.563 51.6503 127.477 51.7148C127.395 51.7793 127.354 51.8623 127.354 51.9668V52.0037C127.354 52.0805 127.381 52.1573 127.436 52.2342C127.491 52.311 127.57 52.4001 127.672 52.5015C127.809 52.4309 127.929 52.3571 128.029 52.271C128.128 52.1881 128.18 52.0867 128.18 51.9791V51.9422C128.18 51.8377 128.142 51.7578 128.07 51.7025C127.998 51.6472 127.902 51.6195 127.782 51.6195Z" fill="white"/>
<path d="M139.462 55.1659H138.969C138.773 55.1659 138.629 55.1229 138.54 55.0338C138.447 54.9447 138.403 54.8218 138.403 54.6712V54.4345C138.207 54.413 138.033 54.3639 137.875 54.284C137.717 54.2041 137.587 54.0965 137.477 53.9644C137.368 53.8291 137.282 53.6663 137.224 53.4788C137.165 53.2883 137.134 53.0762 137.134 52.8396C137.134 52.5784 137.169 52.3479 137.241 52.1481C137.313 51.9453 137.412 51.7793 137.542 51.6441C137.673 51.5089 137.83 51.4075 138.015 51.3368C138.201 51.2661 138.403 51.2323 138.629 51.2323C138.855 51.2323 139.058 51.2692 139.243 51.3368C139.428 51.4044 139.586 51.5089 139.716 51.6441C139.846 51.7824 139.949 51.9484 140.021 52.1481C140.093 52.3479 140.127 52.5784 140.127 52.8396C140.127 53.3036 140.018 53.6693 139.805 53.9398C139.589 54.2102 139.298 54.37 138.927 54.4284V54.748H139.459V55.1659H139.462ZM138.633 54.0012C138.766 54.0012 138.886 53.9797 138.999 53.9367C139.113 53.8937 139.205 53.8322 139.284 53.7554C139.363 53.6755 139.421 53.5802 139.466 53.4665C139.51 53.3528 139.531 53.2237 139.531 53.0824V52.5907C139.531 52.4462 139.51 52.3202 139.466 52.2065C139.424 52.0928 139.363 51.9945 139.284 51.9176C139.205 51.8377 139.113 51.7793 138.999 51.7363C138.89 51.6933 138.766 51.6718 138.633 51.6718C138.499 51.6718 138.375 51.6933 138.262 51.7363C138.153 51.7793 138.06 51.8377 137.981 51.9176C137.902 51.9945 137.844 52.0928 137.799 52.2065C137.755 52.3171 137.734 52.4462 137.734 52.5907V53.0824C137.734 53.2237 137.758 53.3528 137.799 53.4665C137.841 53.5802 137.902 53.6755 137.981 53.7554C138.06 53.8322 138.153 53.8937 138.262 53.9367C138.372 53.9797 138.495 54.0012 138.633 54.0012Z" fill="white"/>
<path d="M145.342 54.0135H145.321C145.297 54.0688 145.266 54.1241 145.229 54.1764C145.191 54.2317 145.143 54.2778 145.085 54.3178C145.026 54.3577 144.958 54.3884 144.875 54.413C144.793 54.4376 144.701 54.4499 144.594 54.4499C144.327 54.4499 144.118 54.3731 143.97 54.2194C143.823 54.0658 143.748 53.8445 143.748 53.5556V52.0805H144.289V53.4942C144.289 53.8537 144.454 54.032 144.786 54.032C144.858 54.032 144.923 54.0227 144.992 54.0074C145.061 53.992 145.119 53.9643 145.167 53.9336C145.218 53.8998 145.259 53.8568 145.29 53.8076C145.321 53.7584 145.338 53.697 145.338 53.6294V52.0774H145.88V54.3946H145.338V54.0104L145.342 54.0135Z" fill="white"/>
<path d="M151.54 54.3946C151.399 54.3946 151.29 54.3577 151.211 54.284C151.135 54.2133 151.087 54.118 151.07 54.0074H151.046C150.995 54.1518 150.906 54.2624 150.772 54.3362C150.638 54.413 150.477 54.4468 150.289 54.4468C150.021 54.4468 149.816 54.3854 149.668 54.2594C149.524 54.1364 149.452 53.9674 149.452 53.7554C149.452 53.5249 149.545 53.3497 149.733 53.2329C149.918 53.1162 150.196 53.0608 150.556 53.0608H151.022V52.8642C151.022 52.7197 150.978 52.6122 150.892 52.5323C150.806 52.4554 150.673 52.4155 150.491 52.4155C150.337 52.4155 150.213 52.4462 150.117 52.5046C150.021 52.563 149.939 52.6398 149.874 52.732L149.552 52.4677C149.637 52.3387 149.761 52.2311 149.915 52.145C150.073 52.059 150.275 52.016 150.525 52.016C150.861 52.016 151.118 52.0867 151.297 52.228C151.475 52.3663 151.564 52.5691 151.564 52.8304V53.9951H151.838V54.3915H151.533L151.54 54.3946ZM150.443 54.0811C150.611 54.0811 150.751 54.0473 150.861 53.9797C150.971 53.9121 151.026 53.823 151.026 53.7093V53.3743H150.566C150.193 53.3743 150.004 53.4788 150.004 53.6847V53.7646C150.004 53.8691 150.042 53.949 150.121 54.0012C150.2 54.0504 150.306 54.0781 150.443 54.0781V54.0811Z" fill="white"/>
<path d="M155.904 54.3946C155.719 54.3946 155.578 54.3516 155.489 54.2686C155.397 54.1825 155.352 54.0658 155.352 53.9121V51.094H155.894V53.9981H156.25V54.3946H155.904Z" fill="white"/>
<path d="M160.028 51.6626C159.915 51.6626 159.833 51.638 159.782 51.5919C159.73 51.5427 159.703 51.4812 159.703 51.4075V51.3307C159.703 51.2569 159.73 51.1954 159.782 51.1463C159.833 51.1002 159.915 51.0756 160.028 51.0756C160.142 51.0756 160.224 51.1002 160.272 51.1463C160.32 51.1954 160.347 51.2569 160.347 51.3307V51.4075C160.347 51.4812 160.323 51.5427 160.272 51.5919C160.224 51.638 160.142 51.6626 160.028 51.6626ZM159.754 52.0774H160.296V54.3946H159.754V52.0774Z" fill="white"/>
<path d="M164.766 54.3946C164.578 54.3946 164.434 54.3516 164.338 54.2655C164.242 54.1764 164.194 54.0535 164.194 53.8937V52.4739H163.793V52.0774H164.012C164.101 52.0774 164.166 52.059 164.197 52.0221C164.231 51.9852 164.249 51.9299 164.249 51.85V51.4444H164.735V52.0774H165.277V52.4739H164.735V54.0012H165.239V54.3977H164.766V54.3946Z" fill="white"/>
<path d="M170.433 52.0774H170.954L169.864 54.8556C169.833 54.9324 169.799 55 169.761 55.0522C169.724 55.1076 169.679 55.1537 169.628 55.1875C169.576 55.2213 169.514 55.2458 169.442 55.2643C169.37 55.2827 169.281 55.2889 169.182 55.2889H168.87V54.8924H169.305L169.456 54.5021L168.517 52.0805H169.058L169.576 53.445L169.727 53.949H169.751L169.916 53.445L170.433 52.0805V52.0774Z" fill="white"/>
</svg>
