<svg width="258" height="73" viewBox="0 0 258 73" fill="none" xmlns="http://www.w3.org/2000/svg">
<g clip-path="url(#clip0_527_3)" filter="url(#filter0_d_527_3)">
<path d="M4 65V38.3067C4 17.185 23.1709 0 46.7334 0H254V26.6933C254 47.815 234.829 65 211.267 65H4Z" fill="#3F54A0"/>
<path d="M211.267 60.6484H8.85444V38.3067C8.85444 19.5544 25.8141 4.35156 46.7334 4.35156H249.142V26.6933C249.142 45.4456 232.182 60.6484 211.263 60.6484H211.267Z" fill="#211D51"/>
<path d="M49.4932 32.6214C48.8487 32.1051 48.1013 31.6779 47.2511 31.3337C46.4009 30.9895 45.5301 30.6884 44.6422 30.4241C43.7543 30.1598 42.9452 29.8863 42.2184 29.6005C41.4882 29.3147 40.9431 28.9766 40.5797 28.5863C40.2163 28.1961 40.1271 27.7044 40.3123 27.1112C40.4631 26.6318 40.7202 26.2293 41.0905 25.9096C41.4573 25.59 41.8996 25.3442 42.4138 25.1721C42.9281 25 43.4663 24.9139 44.0251 24.9139C44.9713 24.9139 45.681 25.1721 46.1609 25.6853C46.6374 26.2016 46.826 26.9514 46.7231 27.9348L53.4666 26.4597C53.6037 25.1997 53.3843 24.1057 52.8049 23.1807C52.2255 22.2526 51.3273 21.5273 50.1137 20.9988C48.9001 20.4733 47.4088 20.209 45.6467 20.209C43.7063 20.209 41.9133 20.4886 40.2711 21.051C38.6256 21.6134 37.2303 22.4308 36.0749 23.5064C34.923 24.582 34.1105 25.8758 33.6374 27.3878C33.2809 28.5341 33.2226 29.496 33.466 30.2735C33.7094 31.051 34.1517 31.6994 34.7962 32.2127C35.4407 32.7289 36.1881 33.1561 37.0383 33.5003C37.8885 33.8445 38.749 34.1518 39.6232 34.4284C40.494 34.7019 41.2825 34.9785 41.9887 35.252C42.6949 35.5255 43.2263 35.8635 43.5897 36.2661C43.9497 36.6656 44.0354 37.1758 43.84 37.7935C43.624 38.4819 43.1543 39.0289 42.4241 39.4407C41.6939 39.8525 40.7819 40.0584 39.6849 40.0584C38.5879 40.0584 37.8439 39.7388 37.3023 39.0965C36.7606 38.4573 36.524 37.5753 36.596 36.4536L29.88 37.7228C29.7669 39.1426 30.0309 40.3841 30.672 41.4505C31.3096 42.5138 32.2901 43.3405 33.6169 43.9244C34.9402 44.5083 36.5617 44.8002 38.4781 44.8002C40.3946 44.8002 42.2355 44.4622 43.9291 43.7861C45.6192 43.11 47.0694 42.2188 48.2693 41.1063C49.4726 39.9969 50.2817 38.7646 50.7034 37.4155C51.0599 36.2723 51.1113 35.3165 50.8508 34.5482C50.5937 33.78 50.1411 33.1407 49.4966 32.6245L49.4932 32.6214Z" fill="white"/>
<path d="M66.4906 20.4456L49.2361 44.5544H56.0172L58.9484 40.295H69.0412L69.3086 44.5544H76.1274L73.9574 20.4456H66.4871H66.4906ZM62.051 35.7959L68.2013 26.8654L68.7635 35.7959H62.051Z" fill="white"/>
<path d="M101.26 21.4782C100.019 20.7898 98.2981 20.4487 96.104 20.4487H85.5312L78.0096 44.5575H84.4856L87.1974 35.8697H91.2976C93.5979 35.8697 95.5863 35.504 97.2731 34.7695C98.9563 34.0381 100.328 33.0854 101.38 31.9207C102.433 30.7529 103.166 29.5175 103.571 28.2114C104.027 26.7456 104.068 25.4302 103.691 24.2625C103.314 23.0947 102.505 22.1666 101.264 21.4813L101.26 21.4782ZM95.3704 30.4057C94.6127 30.9558 93.5671 31.2293 92.2403 31.2293H88.6407L90.5365 25.1506H94.1362C95.4629 25.1506 96.3371 25.4241 96.7519 25.9742C97.1668 26.5243 97.2285 27.268 96.9371 28.2053C96.6525 29.1211 96.128 29.8525 95.3704 30.4026V30.4057Z" fill="white"/>
<path d="M129.252 23.6755C128.33 22.5753 127.133 21.724 125.663 21.1156C124.192 20.5101 122.498 20.2059 120.582 20.2059C118.665 20.2059 116.821 20.5101 114.973 21.1156C113.122 21.724 111.387 22.5753 109.769 23.6755C108.148 24.7757 106.756 26.0695 105.59 27.5569C104.424 29.0443 103.557 30.6945 102.995 32.5015C102.436 34.287 102.275 35.9312 102.511 37.4309C102.745 38.9306 103.331 40.2305 104.263 41.3276C105.196 42.4278 106.399 43.279 107.87 43.8875C109.341 44.496 111.02 44.7972 112.909 44.7972C114.798 44.7972 116.708 44.4929 118.556 43.8875C120.404 43.2821 122.135 42.4278 123.739 41.3276C125.347 40.2274 126.736 38.9306 127.905 37.4309C129.074 35.9312 129.938 34.287 130.496 32.5015C131.062 30.6945 131.223 29.0443 130.987 27.5569C130.747 26.0695 130.167 24.7757 129.249 23.6755H129.252ZM121.902 36.1739C120.973 37.228 119.883 38.0455 118.628 38.6294C117.373 39.2133 116.019 39.5052 114.562 39.5052C113.105 39.5052 111.932 39.2133 111.041 38.6294C110.15 38.0455 109.577 37.228 109.317 36.1739C109.056 35.1199 109.145 33.8967 109.581 32.4985C110.03 31.0572 110.712 29.8156 111.624 28.7738C112.536 27.732 113.619 26.9238 114.87 26.3522C116.122 25.7806 117.476 25.4948 118.929 25.4948C120.383 25.4948 121.559 25.7806 122.454 26.3522C123.348 26.9238 123.931 27.732 124.209 28.7738C124.483 29.8156 124.398 31.0572 123.945 32.4985C123.51 33.8967 122.827 35.1199 121.898 36.1739H121.902Z" fill="white"/>
<path d="M150.113 36.0725C149.39 35.1106 148.426 34.4345 147.22 34.0473C149.153 33.657 150.809 32.898 152.184 31.764C153.558 30.63 154.477 29.3208 154.943 27.8304C155.399 26.3645 155.413 25.0768 154.981 23.9674C154.549 22.858 153.702 21.9914 152.437 21.3737C151.176 20.756 149.482 20.4456 147.364 20.4456H136.407L128.885 44.5544H135.361L138.094 35.7959C139.287 35.8205 140.301 35.9619 141.138 36.2262C141.974 36.4905 142.663 36.8623 143.205 37.3417C144.093 38.0977 144.611 39.0934 144.761 40.3288C144.912 41.5642 144.803 42.9717 144.439 44.5513H151.412C151.755 42.7197 151.803 41.0879 151.56 39.6589C151.316 38.2299 150.833 37.0313 150.113 36.0695V36.0725ZM146.65 30.2858C145.841 30.8697 144.837 31.1616 143.637 31.1616H139.537L141.412 25.1506H145.512C146.688 25.1506 147.511 25.421 147.981 25.9588C148.45 26.4966 148.55 27.2004 148.279 28.0701C148.001 28.9613 147.456 29.7019 146.65 30.2858Z" fill="white"/>
<path d="M159.784 25.083H162.736L158.104 39.917H155.156L153.709 44.5544H166.082L167.529 39.917H164.58L169.209 25.083H172.16L173.607 20.4456H161.231L159.784 25.083Z" fill="white"/>
<path d="M189.514 35.5224L183.182 20.4456H176.71L169.188 44.5544H175.661L180.333 29.5821L186.696 44.5544H193.169L200.69 20.4456H194.218L189.514 35.5224Z" fill="white"/>
<path d="M214.736 44.5544H221.555L219.385 20.4456H211.915L194.66 44.5544H201.441L204.372 40.295H214.465L214.733 44.5544H214.736ZM207.475 35.7959L213.625 26.8654L214.187 35.7959H207.475Z" fill="white"/>
<path d="M229.327 14.2133C234.894 13.9121 238.611 19.3239 235.755 23.6447C233.173 27.5476 226.9 27.7382 224.02 24.0012C220.941 20.0061 223.944 14.5021 229.327 14.2133ZM229.268 15.209C225.055 15.4855 222.57 19.7111 224.633 23.0178C226.68 26.2938 231.847 26.6472 234.404 23.6601C237.517 20.0246 234.335 14.8771 229.268 15.2059V15.209Z" fill="white"/>
<path d="M226.457 17.1635C227.647 17.2004 228.871 17.1143 230.057 17.1635C231.295 17.2157 232.337 17.5507 232.453 18.8107C232.563 19.9693 231.775 20.6669 230.551 20.8451C231.291 21.2108 231.709 21.8254 232.155 22.4401C232.402 22.7781 232.813 23.3036 232.998 23.6478L233.026 23.74H231.264C230.815 23.1377 230.393 22.5108 229.923 21.9207C229.676 21.6103 229.347 21.1401 228.912 21.0449L228.01 20.9865L227.938 21.0234V23.7369H226.461V17.1604L226.457 17.1635ZM227.938 19.9416C228.514 19.9201 229.114 19.9693 229.687 19.9416C230.427 19.9078 231.01 19.7541 230.921 18.9582C230.883 18.6263 230.516 18.2821 230.139 18.2821H227.935V19.9385L227.938 19.9416Z" fill="white"/>
<path d="M76.4052 54.3946V51.2846H78.5752V51.7302H76.9674V52.5937H78.397V53.0393H76.9674V54.3946H76.4052Z" fill="white"/>
<path d="M82.0652 54.3946V52.0774H82.6069V52.523H82.6309C82.6686 52.4032 82.744 52.2987 82.8606 52.2096C82.9771 52.1205 83.1383 52.0774 83.344 52.0774H83.488V52.5446H83.2754C83.0594 52.5446 82.8949 52.5753 82.7783 52.6398C82.6652 52.7013 82.6069 52.7935 82.6069 52.9164V54.3977H82.0652V54.3946Z" fill="white"/>
<path d="M87.9379 54.4499C87.7527 54.4499 87.5882 54.4222 87.4408 54.3669C87.2968 54.3116 87.1699 54.2286 87.0671 54.1242C86.9642 54.0197 86.8854 53.8906 86.8305 53.74C86.7757 53.5894 86.7482 53.4235 86.7482 53.236C86.7482 53.0486 86.7757 52.8857 86.8305 52.7351C86.8854 52.5845 86.9642 52.4585 87.0671 52.351C87.1699 52.2465 87.2933 52.1635 87.4408 52.1082C87.5847 52.0529 87.7527 52.0221 87.9379 52.0221C88.123 52.0221 88.2944 52.0529 88.4384 52.1112C88.5824 52.1696 88.7024 52.2526 88.7984 52.3571C88.8943 52.4616 88.9663 52.5876 89.0143 52.7259C89.0623 52.8642 89.0863 53.0178 89.0863 53.1776V53.362H87.3105V53.4358C87.3105 53.614 87.3688 53.7585 87.4853 53.8722C87.6019 53.9859 87.7733 54.0412 87.9893 54.0412C88.1504 54.0412 88.2841 54.0104 88.3904 53.949C88.5001 53.8844 88.5927 53.8015 88.6681 53.697L88.9869 53.9766C88.8909 54.1211 88.7504 54.2348 88.5687 54.3208C88.387 54.4038 88.1744 54.4468 87.931 54.4468L87.9379 54.4499ZM87.9379 52.4032C87.8453 52.4032 87.7596 52.4186 87.6807 52.4493C87.6019 52.48 87.5367 52.52 87.4819 52.5722C87.427 52.6245 87.3859 52.689 87.3551 52.7628C87.3242 52.8365 87.3105 52.9195 87.3105 53.0055V53.0363H88.5138V52.9932C88.5138 52.815 88.4624 52.6706 88.3595 52.563C88.2567 52.4524 88.1161 52.4001 87.9379 52.4001V52.4032Z" fill="white"/>
<path d="M93.4951 54.4499C93.2483 54.4499 93.0426 54.413 92.878 54.3331C92.7135 54.2563 92.5695 54.1487 92.446 54.0135L92.7923 53.7277C92.8883 53.8322 92.9946 53.9121 93.1146 53.9705C93.2311 54.0258 93.3683 54.0565 93.526 54.0565C93.6837 54.0565 93.8036 54.0289 93.8825 53.9736C93.9613 53.9182 93.9991 53.8414 93.9991 53.7431C93.9991 53.6693 93.9716 53.6048 93.9168 53.5525C93.8619 53.5003 93.7659 53.4665 93.6322 53.4511L93.3923 53.4235C93.1283 53.3927 92.9191 53.3251 92.7683 53.2176C92.6175 53.1069 92.542 52.9471 92.542 52.732C92.542 52.6214 92.566 52.52 92.6106 52.4308C92.6586 52.3448 92.7237 52.268 92.8094 52.2065C92.8951 52.145 92.9946 52.0989 93.1111 52.0682C93.2277 52.0344 93.358 52.019 93.502 52.019C93.7317 52.019 93.9236 52.0528 94.0711 52.1174C94.2185 52.1819 94.3522 52.2741 94.4653 52.3878L94.1328 52.6736C94.0676 52.6029 93.9785 52.5384 93.8722 52.4892C93.7625 52.437 93.6425 52.4124 93.502 52.4124C93.3511 52.4124 93.2414 52.437 93.1694 52.4923C93.0974 52.5445 93.0631 52.6152 93.0631 52.7013C93.0631 52.7873 93.094 52.858 93.1557 52.9041C93.2174 52.9471 93.3203 52.9809 93.4608 53.0024L93.7008 53.0301C93.9853 53.067 94.1945 53.1438 94.3247 53.2544C94.455 53.3651 94.5202 53.5157 94.5202 53.7031C94.5202 53.8138 94.4962 53.9182 94.4482 54.0074C94.4002 54.0965 94.3316 54.1764 94.2425 54.2409C94.1533 54.3055 94.0436 54.3577 93.9168 54.3915C93.7899 54.4284 93.6494 54.4438 93.4951 54.4438V54.4499Z" fill="white"/>
<path d="M98.1096 51.0971H98.6512V52.4616H98.6752C98.7301 52.3387 98.8158 52.2311 98.9323 52.1512C99.0489 52.0682 99.2032 52.0252 99.402 52.0252C99.666 52.0252 99.8717 52.102 100.023 52.2588C100.17 52.4155 100.242 52.6367 100.242 52.9256V54.3977H99.7003V52.984C99.7003 52.6245 99.5357 52.4431 99.2135 52.4431C99.1415 52.4431 99.0763 52.4524 99.0078 52.4677C98.9392 52.4831 98.8775 52.5077 98.8261 52.5415C98.7746 52.5753 98.7301 52.6152 98.6992 52.6644C98.6684 52.7136 98.6512 52.775 98.6512 52.8396V54.3946H98.1096V51.0971Z" fill="white"/>
<path d="M103.979 54.3946V52.0774H104.52V52.4616H104.544C104.599 52.3387 104.685 52.2311 104.802 52.1512C104.918 52.0682 105.072 52.0252 105.271 52.0252C105.535 52.0252 105.741 52.102 105.892 52.2588C106.039 52.4155 106.111 52.6367 106.111 52.9256V54.3977H105.569V52.9902C105.569 52.6275 105.405 52.4462 105.083 52.4462C105.011 52.4462 104.946 52.4554 104.877 52.4708C104.808 52.4862 104.747 52.5107 104.695 52.5446C104.644 52.5784 104.599 52.6183 104.568 52.6675C104.538 52.7167 104.52 52.7781 104.52 52.8457V54.3977H103.979V54.3946Z" fill="white"/>
<path d="M110.859 54.4499C110.674 54.4499 110.51 54.4222 110.362 54.3669C110.218 54.3116 110.091 54.2286 109.989 54.1242C109.886 54.0197 109.807 53.8906 109.752 53.74C109.697 53.5894 109.67 53.4235 109.67 53.236C109.67 53.0486 109.697 52.8857 109.752 52.7351C109.807 52.5845 109.886 52.4585 109.989 52.351C110.091 52.2465 110.215 52.1635 110.362 52.1082C110.506 52.0529 110.674 52.0221 110.859 52.0221C111.044 52.0221 111.216 52.0529 111.36 52.1112C111.504 52.1696 111.624 52.2526 111.72 52.3571C111.816 52.4616 111.888 52.5876 111.936 52.7259C111.984 52.8642 112.008 53.0178 112.008 53.1776V53.362H110.232V53.4358C110.232 53.614 110.29 53.7585 110.407 53.8722C110.523 53.9859 110.695 54.0412 110.911 54.0412C111.072 54.0412 111.206 54.0104 111.312 53.949C111.422 53.8844 111.514 53.8015 111.59 53.697L111.908 53.9766C111.812 54.1211 111.672 54.2348 111.49 54.3208C111.308 54.4038 111.096 54.4468 110.852 54.4468L110.859 54.4499ZM110.859 52.4032C110.767 52.4032 110.681 52.4186 110.602 52.4493C110.523 52.48 110.458 52.52 110.403 52.5722C110.348 52.6245 110.307 52.689 110.276 52.7628C110.246 52.8365 110.232 52.9195 110.232 53.0055V53.0363H111.435V52.9932C111.435 52.815 111.384 52.6706 111.281 52.563C111.178 52.4524 111.038 52.4001 110.859 52.4001V52.4032Z" fill="white"/>
<path d="M116.417 54.4499C116.17 54.4499 115.964 54.413 115.799 54.3331C115.635 54.2563 115.491 54.1487 115.367 54.0135L115.714 53.7277C115.81 53.8322 115.916 53.9121 116.036 53.9705C116.153 54.0258 116.29 54.0565 116.447 54.0565C116.605 54.0565 116.725 54.0289 116.804 53.9736C116.883 53.9182 116.92 53.8414 116.92 53.7431C116.92 53.6693 116.893 53.6048 116.838 53.5525C116.783 53.5003 116.687 53.4665 116.554 53.4511L116.314 53.4235C116.05 53.3927 115.841 53.3251 115.69 53.2176C115.539 53.1069 115.463 52.9471 115.463 52.732C115.463 52.6214 115.487 52.52 115.532 52.4308C115.58 52.3448 115.645 52.268 115.731 52.2065C115.817 52.145 115.916 52.0989 116.033 52.0682C116.149 52.0344 116.279 52.019 116.423 52.019C116.653 52.019 116.845 52.0528 116.992 52.1174C117.14 52.1819 117.274 52.2741 117.387 52.3878L117.054 52.6736C116.989 52.6029 116.9 52.5384 116.794 52.4892C116.684 52.437 116.564 52.4124 116.423 52.4124C116.273 52.4124 116.163 52.437 116.091 52.4923C116.019 52.5445 115.985 52.6152 115.985 52.7013C115.985 52.7873 116.015 52.858 116.077 52.9041C116.139 52.9471 116.242 52.9809 116.382 53.0024L116.622 53.0301C116.907 53.067 117.116 53.1438 117.246 53.2544C117.376 53.3651 117.442 53.5157 117.442 53.7031C117.442 53.8138 117.418 53.9182 117.37 54.0074C117.322 54.0965 117.253 54.1764 117.164 54.2409C117.075 54.3055 116.965 54.3577 116.838 54.3915C116.711 54.4284 116.571 54.4438 116.417 54.4438V54.4499Z" fill="white"/>
<path d="M121.819 54.4499C121.573 54.4499 121.367 54.413 121.202 54.3331C121.038 54.2563 120.894 54.1487 120.77 54.0135L121.117 53.7277C121.213 53.8322 121.319 53.9121 121.439 53.9705C121.556 54.0258 121.693 54.0565 121.85 54.0565C122.008 54.0565 122.128 54.0289 122.207 53.9736C122.286 53.9182 122.323 53.8414 122.323 53.7431C122.323 53.6693 122.296 53.6048 122.241 53.5525C122.186 53.5003 122.09 53.4665 121.957 53.4511L121.717 53.4235C121.453 53.3927 121.244 53.3251 121.093 53.2176C120.942 53.1069 120.866 52.9471 120.866 52.732C120.866 52.6214 120.89 52.52 120.935 52.4308C120.983 52.3448 121.048 52.268 121.134 52.2065C121.22 52.145 121.319 52.0989 121.436 52.0682C121.552 52.0344 121.682 52.019 121.826 52.019C122.056 52.019 122.248 52.0528 122.395 52.1174C122.543 52.1819 122.677 52.2741 122.79 52.3878L122.457 52.6736C122.392 52.6029 122.303 52.5384 122.197 52.4892C122.087 52.437 121.967 52.4124 121.826 52.4124C121.676 52.4124 121.566 52.437 121.494 52.4923C121.422 52.5445 121.388 52.6152 121.388 52.7013C121.388 52.7873 121.418 52.858 121.48 52.9041C121.542 52.9471 121.645 52.9809 121.785 53.0024L122.025 53.0301C122.31 53.067 122.519 53.1438 122.649 53.2544C122.779 53.3651 122.845 53.5157 122.845 53.7031C122.845 53.8138 122.821 53.9182 122.773 54.0074C122.725 54.0965 122.656 54.1764 122.567 54.2409C122.478 54.3055 122.368 54.3577 122.241 54.3915C122.114 54.4284 121.974 54.4438 121.819 54.4438V54.4499Z" fill="white"/>
<path d="M132.639 54.0811C132.598 54.118 132.543 54.158 132.481 54.2041C132.42 54.2471 132.348 54.287 132.269 54.3239C132.187 54.3608 132.094 54.3915 131.988 54.413C131.885 54.4376 131.765 54.4499 131.635 54.4499C131.456 54.4499 131.295 54.4284 131.158 54.3854C131.018 54.3393 130.901 54.2809 130.808 54.201C130.716 54.1242 130.644 54.032 130.596 53.9275C130.548 53.8199 130.524 53.7062 130.524 53.5864C130.524 53.4757 130.541 53.3743 130.582 53.2883C130.62 53.1991 130.671 53.1223 130.736 53.0516C130.802 52.9809 130.874 52.9226 130.959 52.8672C131.045 52.8119 131.134 52.7597 131.23 52.7105C131.12 52.606 131.028 52.4923 130.952 52.3725C130.877 52.2495 130.839 52.1205 130.839 51.9791C130.839 51.8746 130.863 51.7763 130.908 51.6841C130.952 51.595 131.018 51.5151 131.1 51.4474C131.182 51.3798 131.282 51.3276 131.402 51.2907C131.522 51.2538 131.648 51.2323 131.792 51.2323C131.926 51.2323 132.046 51.2477 132.159 51.2815C132.272 51.3122 132.368 51.3583 132.454 51.4198C132.536 51.4813 132.601 51.5519 132.646 51.638C132.691 51.724 132.715 51.8162 132.715 51.9207C132.715 52.0252 132.694 52.1143 132.656 52.1973C132.619 52.2803 132.564 52.354 132.492 52.4216C132.42 52.4862 132.341 52.5507 132.248 52.6091C132.159 52.6644 132.06 52.7228 131.957 52.775L132.636 53.4296C132.68 53.3251 132.718 53.2114 132.745 53.0916C132.773 52.9748 132.787 52.8549 132.793 52.7351H133.534V53.1407H133.195C133.147 53.3651 133.068 53.5648 132.965 53.7431L133.647 54.4007H132.972L132.646 54.0842L132.639 54.0811ZM131.7 54.035C131.837 54.035 131.96 54.0166 132.067 53.9736C132.173 53.9305 132.265 53.8752 132.344 53.7984L131.498 52.984C131.371 53.0455 131.271 53.1131 131.192 53.193C131.114 53.2698 131.076 53.3774 131.076 53.5095V53.5648C131.076 53.7093 131.131 53.823 131.24 53.906C131.35 53.9889 131.501 54.032 131.7 54.032V54.035ZM131.782 51.6195C131.662 51.6195 131.563 51.6503 131.477 51.7148C131.395 51.7793 131.354 51.8623 131.354 51.9668V52.0037C131.354 52.0805 131.381 52.1573 131.436 52.2342C131.491 52.311 131.57 52.4001 131.672 52.5015C131.809 52.4309 131.929 52.3571 132.029 52.271C132.128 52.1881 132.18 52.0867 132.18 51.9791V51.9422C132.18 51.8377 132.142 51.7578 132.07 51.7025C131.998 51.6472 131.902 51.6195 131.782 51.6195Z" fill="white"/>
<path d="M143.462 55.1659H142.969C142.773 55.1659 142.629 55.1229 142.54 55.0338C142.447 54.9447 142.403 54.8218 142.403 54.6712V54.4345C142.207 54.413 142.033 54.3639 141.875 54.284C141.717 54.2041 141.587 54.0965 141.477 53.9644C141.368 53.8291 141.282 53.6663 141.224 53.4788C141.165 53.2883 141.134 53.0762 141.134 52.8396C141.134 52.5784 141.169 52.3479 141.241 52.1481C141.313 51.9453 141.412 51.7793 141.542 51.6441C141.673 51.5089 141.83 51.4075 142.015 51.3368C142.201 51.2661 142.403 51.2323 142.629 51.2323C142.855 51.2323 143.058 51.2692 143.243 51.3368C143.428 51.4044 143.586 51.5089 143.716 51.6441C143.846 51.7824 143.949 51.9484 144.021 52.1481C144.093 52.3479 144.127 52.5784 144.127 52.8396C144.127 53.3036 144.018 53.6693 143.805 53.9398C143.589 54.2102 143.298 54.37 142.927 54.4284V54.748H143.459V55.1659H143.462ZM142.633 54.0012C142.766 54.0012 142.886 53.9797 142.999 53.9367C143.113 53.8937 143.205 53.8322 143.284 53.7554C143.363 53.6755 143.421 53.5802 143.466 53.4665C143.51 53.3528 143.531 53.2237 143.531 53.0824V52.5907C143.531 52.4462 143.51 52.3202 143.466 52.2065C143.424 52.0928 143.363 51.9945 143.284 51.9176C143.205 51.8377 143.113 51.7793 142.999 51.7363C142.89 51.6933 142.766 51.6718 142.633 51.6718C142.499 51.6718 142.375 51.6933 142.262 51.7363C142.153 51.7793 142.06 51.8377 141.981 51.9176C141.902 51.9945 141.844 52.0928 141.799 52.2065C141.755 52.3171 141.734 52.4462 141.734 52.5907V53.0824C141.734 53.2237 141.758 53.3528 141.799 53.4665C141.841 53.5802 141.902 53.6755 141.981 53.7554C142.06 53.8322 142.153 53.8937 142.262 53.9367C142.372 53.9797 142.495 54.0012 142.633 54.0012Z" fill="white"/>
<path d="M149.342 54.0135H149.321C149.297 54.0688 149.266 54.1241 149.229 54.1764C149.191 54.2317 149.143 54.2778 149.085 54.3178C149.026 54.3577 148.958 54.3884 148.875 54.413C148.793 54.4376 148.701 54.4499 148.594 54.4499C148.327 54.4499 148.118 54.3731 147.97 54.2194C147.823 54.0658 147.748 53.8445 147.748 53.5556V52.0805H148.289V53.4942C148.289 53.8537 148.454 54.032 148.786 54.032C148.858 54.032 148.923 54.0227 148.992 54.0074C149.061 53.992 149.119 53.9643 149.167 53.9336C149.218 53.8998 149.259 53.8568 149.29 53.8076C149.321 53.7584 149.338 53.697 149.338 53.6294V52.0774H149.88V54.3946H149.338V54.0104L149.342 54.0135Z" fill="white"/>
<path d="M155.54 54.3946C155.399 54.3946 155.29 54.3577 155.211 54.284C155.135 54.2133 155.087 54.118 155.07 54.0074H155.046C154.995 54.1518 154.906 54.2624 154.772 54.3362C154.638 54.413 154.477 54.4468 154.289 54.4468C154.021 54.4468 153.816 54.3854 153.668 54.2594C153.524 54.1364 153.452 53.9674 153.452 53.7554C153.452 53.5249 153.545 53.3497 153.733 53.2329C153.918 53.1162 154.196 53.0608 154.556 53.0608H155.022V52.8642C155.022 52.7197 154.978 52.6122 154.892 52.5323C154.806 52.4554 154.673 52.4155 154.491 52.4155C154.337 52.4155 154.213 52.4462 154.117 52.5046C154.021 52.563 153.939 52.6398 153.874 52.732L153.552 52.4677C153.637 52.3387 153.761 52.2311 153.915 52.145C154.073 52.059 154.275 52.016 154.525 52.016C154.861 52.016 155.118 52.0867 155.297 52.228C155.475 52.3663 155.564 52.5691 155.564 52.8304V53.9951H155.838V54.3915H155.533L155.54 54.3946ZM154.443 54.0811C154.611 54.0811 154.751 54.0473 154.861 53.9797C154.971 53.9121 155.026 53.823 155.026 53.7093V53.3743H154.566C154.193 53.3743 154.004 53.4788 154.004 53.6847V53.7646C154.004 53.8691 154.042 53.949 154.121 54.0012C154.2 54.0504 154.306 54.0781 154.443 54.0781V54.0811Z" fill="white"/>
<path d="M159.904 54.3946C159.719 54.3946 159.578 54.3516 159.489 54.2686C159.397 54.1825 159.352 54.0658 159.352 53.9121V51.094H159.894V53.9981H160.25V54.3946H159.904Z" fill="white"/>
<path d="M164.028 51.6626C163.915 51.6626 163.833 51.638 163.782 51.5919C163.73 51.5427 163.703 51.4812 163.703 51.4075V51.3307C163.703 51.2569 163.73 51.1954 163.782 51.1463C163.833 51.1002 163.915 51.0756 164.028 51.0756C164.142 51.0756 164.224 51.1002 164.272 51.1463C164.32 51.1954 164.347 51.2569 164.347 51.3307V51.4075C164.347 51.4812 164.323 51.5427 164.272 51.5919C164.224 51.638 164.142 51.6626 164.028 51.6626ZM163.754 52.0774H164.296V54.3946H163.754V52.0774Z" fill="white"/>
<path d="M168.766 54.3946C168.578 54.3946 168.434 54.3516 168.338 54.2655C168.242 54.1764 168.194 54.0535 168.194 53.8937V52.4739H167.793V52.0774H168.012C168.101 52.0774 168.166 52.059 168.197 52.0221C168.231 51.9852 168.249 51.9299 168.249 51.85V51.4444H168.735V52.0774H169.277V52.4739H168.735V54.0012H169.239V54.3977H168.766V54.3946Z" fill="white"/>
<path d="M174.433 52.0774H174.954L173.864 54.8556C173.833 54.9324 173.799 55 173.761 55.0522C173.724 55.1076 173.679 55.1537 173.628 55.1875C173.576 55.2213 173.514 55.2458 173.442 55.2643C173.37 55.2827 173.281 55.2889 173.182 55.2889H172.87V54.8924H173.305L173.456 54.5021L172.517 52.0805H173.058L173.576 53.445L173.727 53.949H173.751L173.916 53.445L174.433 52.0805V52.0774Z" fill="white"/>
</g>
<defs>
<filter id="filter0_d_527_3" x="0" y="0" width="258" height="73" filterUnits="userSpaceOnUse" color-interpolation-filters="sRGB">
<feFlood flood-opacity="0" result="BackgroundImageFix"/>
<feColorMatrix in="SourceAlpha" type="matrix" values="0 0 0 0 0 0 0 0 0 0 0 0 0 0 0 0 0 0 127 0" result="hardAlpha"/>
<feOffset dy="4"/>
<feGaussianBlur stdDeviation="2"/>
<feComposite in2="hardAlpha" operator="out"/>
<feColorMatrix type="matrix" values="0 0 0 0 0 0 0 0 0 0 0 0 0 0 0 0 0 0 0.25 0"/>
<feBlend mode="normal" in2="BackgroundImageFix" result="effect1_dropShadow_527_3"/>
<feBlend mode="normal" in="SourceGraphic" in2="effect1_dropShadow_527_3" result="shape"/>
</filter>
<clipPath id="clip0_527_3">
<rect width="250" height="65" fill="white" transform="translate(4)"/>
</clipPath>
</defs>
</svg>
