<?xml version="1.0" encoding="UTF-8"?>
<svg id="Layer_2" data-name="Layer 2" xmlns="http://www.w3.org/2000/svg" viewBox="0 0 698.73 202.67">
  <defs>
    <style>
      .cls-1, .cls-2 {
        fill: #fff;
      }

      .cls-3 {
        fill: #211d52;
      }

      .cls-2 {
        font-family: IBMPlexSansArabic-Medium, 'IBM Plex Sans Arabic';
        font-size: 16.53px;
        font-weight: 500;
      }
    </style>
  </defs>
  <g id="Layer_1-2" data-name="Layer 1">
    <g>
      <path class="cls-1" d="M0,202.67v-83.23C0,53.58,53.58,0,119.44,0h579.29v83.23c0,65.86-53.58,119.44-119.44,119.44H0Z"/>
      <path class="cls-3" d="M579.29,189.09H13.57v-69.66C13.57,60.97,60.97,13.57,119.44,13.57h565.72v69.66c0,58.47-47.4,105.87-105.87,105.87Z"/>
      <g>
        <path class="cls-1" d="M127.15,101.71c-1.8-1.61-3.89-2.94-6.26-4.02-2.38-1.07-4.81-2.02-7.29-2.84-2.48-.82-4.74-1.68-6.78-2.57-2.04-.89-3.56-1.94-4.58-3.16-1.02-1.21-1.27-2.75-.75-4.6.42-1.5,1.14-2.75,2.17-3.75,1.03-1,2.26-1.77,3.7-2.3,1.43-.54,2.94-.8,4.51-.8,2.64,0,4.63.8,5.97,2.41,1.33,1.61,1.86,3.95,1.57,7.01l18.85-4.6c.38-3.93-.23-7.33-1.85-10.23-1.62-2.89-4.13-5.16-7.52-6.8-3.4-1.64-7.56-2.46-12.48-2.46-5.43,0-10.44.87-15.03,2.62-4.6,1.75-8.5,4.3-11.72,7.66-3.22,3.36-5.49,7.39-6.81,12.1-1,3.57-1.16,6.57-.48,8.99.68,2.43,1.92,4.44,3.72,6.05,1.8,1.61,3.89,2.94,6.26,4.02,2.38,1.07,4.78,2.03,7.22,2.89,2.44.86,4.64,1.71,6.62,2.57,1.97.86,3.46,1.91,4.47,3.16,1.01,1.25,1.24,2.84.7,4.76-.6,2.14-1.92,3.85-3.95,5.14-2.04,1.28-4.59,1.93-7.66,1.93s-5.15-1-6.66-3c-1.51-2-2.17-4.75-1.98-8.24l-18.77,3.96c-.31,4.43.43,8.3,2.21,11.62,1.78,3.32,4.53,5.89,8.23,7.71,3.7,1.82,8.23,2.73,13.58,2.73s10.5-1.05,15.23-3.16c4.73-2.1,8.77-4.89,12.13-8.35,3.36-3.46,5.63-7.3,6.81-11.51,1-3.57,1.14-6.55.41-8.94-.72-2.39-1.98-4.39-3.78-6Z"/>
        <path class="cls-1" d="M174.66,63.75l-48.22,75.17h18.95l8.2-13.28h28.21l.75,13.28h19.06l-6.07-75.17h-20.88ZM162.24,111.61l17.19-27.84,1.57,27.84h-18.76Z"/>
        <path class="cls-1" d="M271.84,66.96c-3.47-2.14-8.27-3.21-14.41-3.21h-29.55l-21.02,75.17h18.1l7.58-27.09h11.46c6.42,0,11.99-1.14,16.7-3.43,4.71-2.28,8.53-5.25,11.48-8.89,2.95-3.64,4.99-7.5,6.13-11.56,1.28-4.57,1.39-8.67.34-12.31-1.05-3.64-3.31-6.53-6.78-8.67ZM255.38,94.8c-2.12,1.71-5.04,2.57-8.75,2.57h-10.07l5.3-18.95h10.07c3.71,0,6.15.86,7.31,2.57,1.16,1.71,1.33,4.03.52,6.96-.8,2.86-2.26,5.14-4.38,6.85Z"/>
        <path class="cls-1" d="M350.06,73.82c-2.58-3.43-5.92-6.08-10.03-7.98-4.11-1.89-8.84-2.84-14.2-2.84s-10.51.95-15.68,2.84c-5.17,1.89-10.02,4.55-14.54,7.98-4.53,3.43-8.42,7.46-11.68,12.1-3.26,4.64-5.68,9.78-7.26,15.42-1.56,5.57-2.01,10.69-1.35,15.37.65,4.68,2.29,8.73,4.9,12.15,2.61,3.43,5.97,6.09,10.08,7.98,4.11,1.89,8.81,2.84,14.09,2.84s10.61-.95,15.78-2.84c5.17-1.89,10-4.55,14.49-7.98,4.49-3.43,8.37-7.48,11.64-12.15,3.27-4.67,5.68-9.8,7.24-15.37,1.58-5.64,2.03-10.78,1.37-15.42-.67-4.64-2.29-8.67-4.86-12.1ZM329.53,112.79c-2.6,3.28-5.65,5.84-9.15,7.66-3.51,1.82-7.3,2.73-11.36,2.73s-7.35-.91-9.84-2.73c-2.49-1.82-4.1-4.37-4.82-7.66-.72-3.28-.48-7.1.74-11.46,1.26-4.5,3.16-8.37,5.71-11.62,2.55-3.25,5.57-5.76,9.07-7.55,3.5-1.78,7.28-2.68,11.35-2.68s7.35.89,9.85,2.68c2.5,1.79,4.13,4.3,4.9,7.55.77,3.25.52,7.12-.73,11.62-1.22,4.36-3.13,8.17-5.72,11.46Z"/>
        <path class="cls-1" d="M408.37,112.47c-2.02-3-4.71-5.1-8.08-6.32,5.41-1.21,10.03-3.59,13.88-7.12,3.84-3.53,6.41-7.62,7.71-12.26,1.28-4.57,1.31-8.58.1-12.05-1.21-3.46-3.58-6.16-7.11-8.08-3.53-1.93-8.26-2.89-14.18-2.89h-30.62l-21.02,75.17h18.1l7.64-27.3c3.33.07,6.17.52,8.51,1.34,2.34.82,4.26,1.98,5.77,3.48,2.48,2.36,3.93,5.46,4.35,9.32.42,3.85.12,8.24-.9,13.17h19.49c.95-5.71,1.09-10.8.41-15.26-.68-4.46-2.03-8.19-4.04-11.19ZM398.69,94.43c-2.26,1.82-5.07,2.73-8.42,2.73h-11.46l5.24-18.74h11.46c3.28,0,5.58.84,6.9,2.52,1.31,1.68,1.59,3.87.83,6.59-.78,2.78-2.3,5.09-4.55,6.91Z"/>
        <polygon class="cls-1" points="435.41 78.21 443.65 78.21 430.71 124.46 422.47 124.46 418.43 138.92 453.01 138.92 457.05 124.46 448.81 124.46 461.75 78.21 469.99 78.21 474.03 63.75 439.45 63.75 435.41 78.21"/>
        <polygon class="cls-1" points="518.49 110.76 500.8 63.75 482.71 63.75 461.68 138.92 479.78 138.92 492.84 92.23 510.62 138.92 528.71 138.92 549.73 63.75 531.64 63.75 518.49 110.76"/>
        <path class="cls-1" d="M588.99,138.92h19.06l-6.07-75.17h-20.88l-48.22,75.17h18.95l8.2-13.28h28.21l.75,13.28ZM568.7,111.61l17.19-27.84,1.57,27.84h-18.76Z"/>
      </g>
      <path class="cls-1" d="M629.76,44.32c15.56-.93,25.95,15.94,17.96,29.41-7.21,12.17-24.75,12.76-32.79,1.11-8.6-12.46-.21-29.62,14.83-30.52ZM629.61,47.42c-11.78.86-18.73,14.04-12.95,24.35,5.72,10.22,20.16,11.32,27.31,2.01,8.7-11.33-.2-27.39-14.36-26.36Z"/>
      <path class="cls-1" d="M621.75,53.51c3.32.12,6.75-.16,10.06,0,3.46.16,6.37,1.21,6.7,5.14.3,3.61-1.9,5.79-5.31,6.35,2.07,1.14,3.24,3.06,4.48,4.97.69,1.06,1.84,2.69,2.36,3.76.05.1.1.16.07.28h-4.93c-1.25-1.88-2.44-3.83-3.75-5.67-.69-.97-1.61-2.43-2.83-2.73-.48-.12-2.07-.26-2.52-.18l-.2.12v8.46h-4.13v-20.51ZM625.89,62.18c1.61-.06,3.29.08,4.89,0,2.07-.1,3.7-.58,3.45-3.06-.1-1.04-1.13-2.11-2.18-2.11h-6.16v5.17Z"/>
      <text class="cls-2" transform="translate(174.86 168.84)"><tspan x="0" y="0">Freshness &amp; Quality</tspan></text>
    </g>
  </g>
</svg>